<?xml version="1.0" encoding="UTF-8" standalone="no"?>
<!-- Created with Inkscape (http://www.inkscape.org/) -->

<svg
   width="97.084mm"
   height="97.084mm"
   viewBox="0 0 97.084 97.084"
   version="1.1"
   id="svg885"
   xmlns="http://www.w3.org/2000/svg"
   xmlns:svg="http://www.w3.org/2000/svg">
  <defs
     id="defs882" />
  <g
     id="layer1">
    <path
       id="path4295"
       style="color:#000000;fill:#000000;fill-opacity:0.375;stroke-width:1;stroke-linecap:round;-inkscape-stroke:none"
       d="M 48.405763,0.08661414 47.563954,0.61216368 C 45.293226,2.0318588 43.190291,3.7032495 41.29612,5.5963553 v 0.00206 C 27.650468,19.244069 27.476332,41.293211 40.753516,55.16594 l -0.0052,0.0067 c 0.181171,0.189518 0.362321,0.378751 0.547772,0.564306 0.876546,0.876549 1.788499,1.69641 2.730066,2.461866 0.0016,-7.94e-4 0.0031,-0.0019 0.0047,-0.0026 0.526283,-0.260062 1.044731,-0.53599 1.555462,-0.825788 0.0011,-5.3e-4 0.0021,-0.0011 0.0031,-0.0016 0.02466,-0.014 0.04824,-0.02985 0.07286,-0.04393 0.459242,-0.262332 0.913379,-0.533852 1.358572,-0.819587 -0.0011,-7.93e-4 -0.0021,-0.0019 -0.0031,-0.0026 0.02661,-0.01707 0.05458,-0.03193 0.08113,-0.04909 -1.255829,-0.901324 -2.461686,-1.868535 -3.556373,-2.962608 -0.07148,-0.07149 -0.137067,-0.146606 -0.20774,-0.218591 -0.206748,-0.214093 -0.4131,-0.428596 -0.611849,-0.649573 l -0.0026,0.0031 C 30.938289,39.955925 31.206682,20.178541 43.542494,7.8427297 c 1.470059,-1.469232 3.140165,-2.7103691 4.863269,-3.8695312 1.723176,1.159193 3.395223,2.4002463 4.865335,3.8695312 6.070915,6.0709113 9.211945,13.9454623 9.441286,21.8880683 0.918239,-0.09033 1.840018,-0.14864 2.763655,-0.166397 0.1289,-0.0031 0.257638,-0.0044 0.38654,-0.0062 C 65.592151,20.855096 62.149174,12.232716 55.514889,5.5984331 v -0.00206 C 53.620719,3.7032635 51.518297,2.0318729 49.247572,0.6121777 Z M 66.366423,31.143117 c -9.076828,0 -18.154102,3.458874 -25.070303,10.375077 -0.875003,0.875004 -1.693947,1.785096 -2.458249,2.724896 0.0011,0.0019 0.0021,0.0038 0.0031,0.0057 0,0 -5.29e-4,5.29e-4 -5.29e-4,5.29e-4 0.08175,0.165386 0.174686,0.324975 0.259413,0.48886 0.181142,0.350517 0.360559,0.702136 0.555006,1.045414 0.09771,0.172365 0.205425,0.338584 0.306441,0.509013 0.187171,0.315995 0.370559,0.634143 0.56896,0.943094 5.29e-4,-7.94e-4 0.0013,-0.0016 0.0021,-0.0026 0.01762,0.02744 0.03293,0.05633 0.05064,0.08371 0.900534,-1.254329 1.86694,-2.458948 2.95951,-3.552238 0.107337,-0.107275 0.22287,-0.205163 0.33228,-0.310057 l -0.0031,-0.0026 c 6.266657,-6.096159 14.377975,-9.152414 22.494751,-9.152414 8.25763,0 16.514905,3.155516 22.824448,9.465056 1.469059,1.469787 2.709915,3.140496 3.869012,4.863269 -1.159383,1.723197 -2.399519,3.395255 -3.869012,4.865336 -6.072857,6.072857 -13.949797,9.217903 -21.894271,9.444384 0.100825,1.04816 0.156313,2.10076 0.168465,3.153815 8.707234,-0.266867 17.334423,-3.717169 23.971663,-10.354408 1.893374,-1.894131 3.56684,-3.996553 4.986777,-6.267318 l 0.525031,-0.841809 -0.525031,-0.841809 C 95.003605,45.515154 93.330139,43.412214 91.436765,41.518086 84.520562,34.601883 75.443287,31.143009 66.36646,31.143009 Z m -37.020994,0.01913 c -8.706367,0.268459 -17.332601,3.719475 -23.9690803,10.355958 -1.8931059,1.89417 -3.5665638,3.997108 -4.9862589,6.267833 l -0.52554954,0.841809 0.52554954,0.841809 c 1.4196951,2.270726 3.093153,4.373147 4.9862589,6.267318 C 18.892351,69.25298 40.654061,69.553981 54.547507,56.656298 l 0.0047,0.0036 c 0.325948,-0.302178 0.648102,-0.608489 0.962732,-0.922941 0.876959,-0.876956 1.691576,-1.792158 2.457214,-2.734199 -5.29e-4,-0.0011 -0.0011,-0.0021 -0.0016,-0.0031 -0.0099,-0.02011 -0.02156,-0.03934 -0.03152,-0.05943 -0.248951,-0.502322 -0.511278,-0.998249 -0.787548,-1.486215 -0.05025,-0.0887 -0.106476,-0.173807 -0.157615,-0.261998 -0.230283,-0.397446 -0.46269,-0.793583 -0.710549,-1.18029 -5.29e-4,7.94e-4 -0.0013,0.0016 -0.0021,0.0026 -0.01664,-0.02596 -0.03133,-0.05314 -0.04806,-0.07906 -0.866192,1.207508 -1.795824,2.366785 -2.838069,3.427179 -0.042,0.04248 -0.08172,0.08637 -0.124023,0.128675 -0.408874,0.408644 -0.834898,0.798166 -1.271757,1.174605 l 0.0186,0.01447 C 39.334878,66.097721 19.830368,65.702889 7.6206559,53.493172 6.1514127,52.023102 4.9123602,50.350957 3.7531918,48.627837 4.9120753,46.905143 6.1518458,45.234344 7.6206559,43.764568 13.696407,37.688816 21.579703,34.539145 29.52888,34.313982 29.423912,33.266311 29.362066,32.214796 29.345429,31.162236 Z m 6.332428,0.367419 c 0.02752,1.083905 0.111464,2.165537 0.256831,3.239079 2.699052,0.464153 5.34941,1.276726 7.883242,2.430859 0.962187,-0.735322 1.96019,-1.423752 2.989998,-2.061374 -3.522501,-1.831946 -7.286767,-3.039123 -11.130071,-3.608564 z m 29.822471,4.373893 c -1.085911,0.03202 -2.169499,0.121314 -3.245281,0.267684 -0.465019,2.695599 -1.276133,5.34267 -2.427759,7.87342 0.737285,0.959986 1.427668,1.956091 2.068608,2.982765 1.829305,-3.520837 3.034929,-7.283178 3.604432,-11.123869 z m -12.725323,3.154846 c -7.94e-4,2.65e-4 -0.0013,7.94e-4 -0.0021,0.0011 -0.01818,0.0089 -0.03558,0.01942 -0.05374,0.02842 -0.500853,0.247992 -0.995442,0.509117 -1.482079,0.784966 -0.177141,0.100386 -0.347835,0.212228 -0.522965,0.316259 -0.309861,0.184105 -0.622252,0.363747 -0.925526,0.559139 7.94e-4,5.29e-4 0.0013,0.0011 0.0021,0.0016 -0.02679,0.01725 -0.05491,0.03226 -0.08165,0.04961 1.257826,0.902094 2.466183,1.869937 3.562056,2.965193 0.11952,0.119578 0.228621,0.248362 0.345199,0.37052 l 0.0031,-0.0041 c 12.261844,12.644425 12.150944,32.782745 -0.348301,45.28199 -1.470112,1.46929 -3.142159,2.709823 -4.865335,3.869013 -1.723104,-1.159158 -3.39321,-2.399784 -4.863269,-3.869013 -6.073492,-6.073494 -9.220229,-13.951757 -9.446969,-21.897371 -1.048599,0.100663 -2.101279,0.157363 -3.154847,0.169497 0.26675,8.708019 3.717727,17.336018 10.355442,23.973731 1.894171,1.89311 3.997106,3.565009 6.267834,4.984708 l 0.841809,0.5271 0.841809,-0.5271 c 2.270725,-1.419699 4.373147,-3.091598 6.267317,-4.984708 13.832404,-13.8324 13.832404,-36.308206 0,-50.140607 -0.02484,-0.02484 -0.05156,-0.0476 -0.07648,-0.07235 l 5.29e-4,-5.29e-4 C 55.314499,41.321688 55.184002,41.207999 55.058076,41.086759 54.757329,40.797692 54.458458,40.506565 54.147536,40.22893 53.697345,39.825959 53.239605,39.43604 52.77501,39.058458 Z M 34.900128,50.242737 c -1.824463,3.514698 -3.014745,7.273057 -3.58376,11.106298 1.081987,-0.02885 2.162548,-0.113935 3.236494,-0.255799 0.46418,-2.694379 1.268638,-5.342155 2.420525,-7.87187 -0.743442,-0.956834 -1.434891,-1.951691 -2.073259,-2.978629 z m 18.081582,9.808186 c -0.959921,0.737912 -1.955498,1.42843 -2.982245,2.06964 3.521921,1.831326 7.2889,3.025537 11.131102,3.595647 -0.02982,-1.082026 -0.116633,-2.162579 -0.261482,-3.236494 -2.699986,-0.465598 -5.352878,-1.272778 -7.887375,-2.428793 z" />
  </g>
</svg>
